<svg width="16" height="16" viewBox="0 0 16 16" fill="none" xmlns="http://www.w3.org/2000/svg">
<path d="M7.05625 14.6313L6.97813 14.5594L1.50312 9.47502C0.54375 8.5844 0 7.33439 0 6.02502V5.92189C0 3.72189 1.5625 1.83439 3.725 1.42189C4.95625 1.18439 6.21562 1.46877 7.21875 2.17502C7.5 2.37502 7.7625 2.60627 8 2.87189C8.13125 2.72189 8.27188 2.58439 8.42188 2.45627C8.5375 2.35627 8.65625 2.26252 8.78125 2.17502C9.78438 1.46877 11.0437 1.18439 12.275 1.41877C14.4375 1.83127 16 3.72189 16 5.92189V6.02502C16 7.33439 15.4563 8.5844 14.4969 9.47502L9.02188 14.5594L8.94375 14.6313C8.6875 14.8688 8.35 15.0031 8 15.0031C7.65 15.0031 7.3125 14.8719 7.05625 14.6313ZM7.47188 4.53127C7.45938 4.52189 7.45 4.50939 7.44063 4.49689L6.88438 3.87189L6.88125 3.86877C6.15937 3.05939 5.06875 2.69064 4.00625 2.89377C2.55 3.17189 1.5 4.44064 1.5 5.92189V6.02502C1.5 6.91564 1.87188 7.76877 2.525 8.37502L8 13.4594L13.475 8.37502C14.1281 7.76877 14.5 6.91564 14.5 6.02502V5.92189C14.5 4.44377 13.45 3.17189 11.9969 2.89377C10.9344 2.69064 9.84062 3.06252 9.12187 3.86877C9.12187 3.86877 9.12187 3.86877 9.11875 3.87189C9.11562 3.87502 9.11875 3.87189 9.11563 3.87502L8.55937 4.50002C8.55 4.51252 8.5375 4.52189 8.52812 4.53439C8.3875 4.67502 8.19687 4.75314 8 4.75314C7.80312 4.75314 7.6125 4.67502 7.47188 4.53439V4.53127Z" fill="white"/>
</svg>
