<svg width="32" height="32" viewBox="0 0 32 32" fill="none" xmlns="http://www.w3.org/2000/svg">
<path d="M32 16C32 24.8366 24.8366 32 16 32C7.16344 32 0 24.8366 0 16C0 7.16344 7.16344 0 16 0C24.8366 0 32 7.16344 32 16Z" fill="#FBF8FA"/>
<path d="M20.2056 20.5759C18.8137 20.6485 17.3719 20.3547 16.0332 19.6523C12.9823 18.0517 11.3737 14.8068 11.8081 11.6858C11.5259 12.0118 11.2764 12.374 11.0672 12.7728C9.54468 15.6747 10.7585 19.3165 13.7876 20.9057C15.9326 22.031 18.4047 21.8217 20.2072 20.5729L20.2056 20.5759ZM23.237 19.7922C21.1527 23.1219 16.7094 24.2736 13.0327 22.3446C9.18169 20.3242 7.63198 15.6881 9.57442 11.9858C10.3262 10.5528 11.4884 9.47271 12.8579 8.79961C12.9282 8.76389 13.0001 8.73279 13.0689 8.70006C13.2565 8.61496 13.4471 8.53913 13.6424 8.46955C13.7596 8.42781 13.8752 8.38907 13.9939 8.35195C14.2251 8.28209 14.4822 8.36725 14.6249 8.56445C14.7675 8.76165 14.768 9.02567 14.6221 9.21292C14.5452 9.31404 14.4684 9.41516 14.3977 9.51955C14.3035 9.66128 14.2108 9.80764 14.1259 9.96189C14.1071 9.99787 14.0866 10.0368 14.0677 10.0728L14.063 10.0818C12.5468 12.987 13.7637 16.6228 16.7866 18.2087C18.4927 19.1038 20.4067 19.156 22.0288 18.5084C22.0725 18.4931 22.1147 18.4732 22.16 18.4549C22.3226 18.3873 22.482 18.3104 22.6368 18.2272C22.7478 18.1669 22.8604 18.1037 22.9684 18.0341C23.1733 17.9084 23.44 17.9298 23.6281 18.0858C23.8162 18.2419 23.8837 18.4991 23.7923 18.7187C23.745 18.8315 23.6962 18.9397 23.6427 19.0493C23.6033 19.1319 23.5593 19.2158 23.5168 19.2967C23.4649 19.3957 23.4115 19.49 23.3565 19.5873C23.3172 19.6546 23.2779 19.7219 23.2355 19.7876L23.237 19.7922Z" fill="#100B3A"/>
</svg>
