<svg width="32" height="32" viewBox="0 0 32 32" fill="none" xmlns="http://www.w3.org/2000/svg">
<path d="M32 16C32 24.8366 24.8366 32 16 32C7.16344 32 0 24.8366 0 16C0 7.16344 7.16344 0 16 0C24.8366 0 32 7.16344 32 16Z" fill="#FBF8FA"/>
<path d="M20.0068 23.3845C19.9628 23.6345 19.8046 23.8438 19.5849 23.9407C19.3652 24.0376 19.1132 24.0095 18.9169 23.8657L16.4999 22.0907L14.0829 23.8688C13.8866 24.0126 13.6347 24.0407 13.415 23.9438C13.1952 23.847 13.037 23.6376 12.9931 23.3876L12.4628 20.3095L9.57707 19.7407C9.3427 19.6938 9.14641 19.5251 9.05559 19.2907C8.96477 19.0563 8.99113 18.7876 9.1259 18.5782L10.79 16.0001L9.12297 13.422C8.9882 13.2126 8.96184 12.9438 9.05266 12.7095C9.14348 12.4751 9.33977 12.3032 9.57414 12.2595L12.4599 11.6938L12.9902 8.6157C13.0341 8.3657 13.1923 8.15633 13.412 8.05945C13.6318 7.96258 13.8837 7.9907 14.08 8.13445L16.4999 9.90945L18.9169 8.13133C19.1132 7.98758 19.3652 7.95945 19.5849 8.05633C19.8046 8.1532 19.9628 8.36258 20.0068 8.61258L20.537 11.6907L23.4228 12.2563C23.6571 12.3032 23.8534 12.472 23.9443 12.7063C24.0351 12.9407 24.0087 13.2095 23.8739 13.4188L22.2099 16.0001L23.8769 18.5782C24.0116 18.7876 24.038 19.0563 23.9472 19.2907C23.8564 19.5251 23.6601 19.6938 23.4257 19.7407L20.54 20.3063L20.0068 23.3845ZM16.8984 20.5626L18.8202 21.9751L19.2421 19.5282C19.2948 19.222 19.5204 18.9813 19.8075 18.9251L22.1015 18.4751L20.7773 16.4251C20.6103 16.1688 20.6103 15.8313 20.7773 15.5751L22.1015 13.5251L19.8075 13.0751C19.5204 13.0188 19.2948 12.7782 19.2421 12.472L18.8202 10.0251L16.8984 11.4376C16.6581 11.6157 16.3417 11.6157 16.1015 11.4376L14.1796 10.0251L13.7577 12.472C13.705 12.7782 13.4794 13.0188 13.1923 13.0751L10.8984 13.5251L12.2226 15.5751C12.3896 15.8313 12.3896 16.1688 12.2226 16.4251L10.8984 18.4751L13.1923 18.9251C13.4794 18.9813 13.705 19.222 13.7577 19.5282L14.1796 21.9751L16.1015 20.5626C16.3417 20.3845 16.6581 20.3845 16.8984 20.5626ZM16.4999 12.5001C17.3702 12.5001 18.2048 12.8688 18.8201 13.5252C19.4355 14.1816 19.7812 15.0718 19.7812 16.0001C19.7812 16.9283 19.4355 17.8186 18.8201 18.475C18.2048 19.1313 17.3702 19.5001 16.4999 19.5001C15.6297 19.5001 14.7951 19.1313 14.1797 18.475C13.5644 17.8186 13.2187 16.9283 13.2187 16.0001C13.2187 15.0718 13.5644 14.1816 14.1797 13.5252C14.7951 12.8688 15.6297 12.5001 16.4999 12.5001ZM14.6249 16.0001C14.6249 16.5305 14.8225 17.0392 15.1741 17.4143C15.5257 17.7894 16.0026 18.0001 16.4999 18.0001C16.9972 18.0001 17.4741 17.7894 17.8257 17.4143C18.1774 17.0392 18.3749 16.5305 18.3749 16.0001C18.3749 15.4696 18.1774 14.9609 17.8257 14.5859C17.4741 14.2108 16.9972 14.0001 16.4999 14.0001C16.0026 14.0001 15.5257 14.2108 15.1741 14.5859C14.8225 14.9609 14.6249 15.4696 14.6249 16.0001Z" fill="#100B3A"/>
</svg>
